<?xml version="1.0" encoding="UTF-8" standalone="no"?>
<!-- Generator: Adobe Illustrator 19.2.1, SVG Export Plug-In . SVG Version: 6.00 Build 0)  -->

<svg
   xmlns:dc="http://purl.org/dc/elements/1.1/"
   xmlns:cc="http://creativecommons.org/ns#"
   xmlns:rdf="http://www.w3.org/1999/02/22-rdf-syntax-ns#"
   xmlns:svg="http://www.w3.org/2000/svg"
   xmlns="http://www.w3.org/2000/svg"
   xmlns:sodipodi="http://sodipodi.sourceforge.net/DTD/sodipodi-0.dtd"
   xmlns:inkscape="http://www.inkscape.org/namespaces/inkscape"
   version="1.1"
   id="layer"
   x="0px"
   y="0px"
   viewBox="0 0 328.60001 176.5822"
   xml:space="preserve"
   sodipodi:docname="sage-intacct-inc-vector-logo.svg"
   width="328.60001"
   height="176.5822"
   inkscape:version="0.92.5 (2060ec1f9f, 2020-04-08)"><metadata
   id="metadata31"><rdf:RDF><cc:Work
       rdf:about=""><dc:format>image/svg+xml</dc:format><dc:type
         rdf:resource="http://purl.org/dc/dcmitype/StillImage" /><dc:title></dc:title></cc:Work></rdf:RDF></metadata><defs
   id="defs29" /><sodipodi:namedview
   pagecolor="#ffffff"
   bordercolor="#666666"
   borderopacity="1"
   objecttolerance="10"
   gridtolerance="10"
   guidetolerance="10"
   inkscape:pageopacity="0"
   inkscape:pageshadow="2"
   inkscape:window-width="2560"
   inkscape:window-height="1382"
   id="namedview27"
   showgrid="false"
   fit-margin-top="0"
   fit-margin-left="0"
   fit-margin-right="0"
   fit-margin-bottom="0"
   inkscape:zoom="0.36196319"
   inkscape:cx="352.16441"
   inkscape:cy="138.6822"
   inkscape:window-x="0"
   inkscape:window-y="0"
   inkscape:window-maximized="1"
   inkscape:current-layer="layer" />
<style
   type="text/css"
   id="style2">
	.st0{fill:#00DB00;}
	.st1{fill:#8F8A87;}
</style>
<path
   class="st0"
   d="m 233.46441,27.5 c 0,-10.8 8.2,-16 17,-16 8.8,0 16.8,5.3 16.8,16 z m 15.5,-27.4 c -18,0 -29.7,12.3 -29.7,32.7 0,25.2 18,32.5 30.8,32.5 16.3,0 25.6,-10.9 25.6,-10.9 l -8.3,-8.3 c -4.4,3.9 -9.5,6.3 -17.1,6.3 -10,0 -16.8,-5.9 -16.8,-13.9 h 44.6 c 0,-0.1 7.8,-38.4 -29.1,-38.4"
   id="path4"
   inkscape:connector-curvature="0"
   style="fill:#00db00" />
<path
   class="st0"
   d="m 84.564408,26.4 c -5.7,-0.7 -22.3,-0.1 -22.3,-7.6 0,-4.5 6.9,-6.9 13.3,-6.9 10.2,0 17,4.1 18.9,5.4 L 103.06441,8.7 C 100.56441,6.6 91.064408,0 75.564408,0 c -14.1,0 -26.8,7.4 -26.8,19.2 0,18.2 21.9,18.1 31.1,19 5.5,0.5 10.6,0.9 10.6,6.4 0,5 -7.7,7.9 -13.7,7.9 -9.8,0 -15.6,-3.2 -21.3,-8.4 l -9.2,9.2 c 8.5,8.2 19.2,11.8 29.8,11.8 16.4,0 28.300002,-7.2 28.300002,-21.8 -0.1,-9.5 -6.600002,-15.2 -19.800002,-16.9"
   id="path6"
   inkscape:connector-curvature="0"
   style="fill:#00db00" />
<path
   class="st0"
   d="m 146.06441,41.2 c 0,12.1 -8.6,11.4 -16.3,11.4 -7.8,0 -12.7,-2.1 -12.7,-7.5 0,-5 4,-6.7 12.4,-6.7 h 16.6 z m -14.3,-41.1 c -14.2,0 -23.5,7.3 -25.2,8.7 l 8.6,8.6 c 1.7,-1.4 7.6,-5.4 16.7,-5.4 10.9,0 14.2,4.3 14.2,9.3 v 6.1 h -19.4 c -7.2,0 -21.3,1.8 -21.3,17.6 0,11.6 6.7,20.2 22.6,20.2 8,0 14,-2.6 18.2,-7.6 v 6.3 h 14.1 V 22.2 c -0.2,-14.6 -9.1,-22.1 -28.5,-22.1"
   id="path8"
   inkscape:connector-curvature="0"
   style="fill:#00db00" />
<path
   class="st0"
   d="m 203.66441,32.6 c 0,4.9 -0.1,8.5 -0.5,10.3 -0.9,4.1 -5.5,9.4 -13.8,9.4 -2.1,0 -12.8,-1.2 -14,-10.5 -0.2,-1.9 -0.4,-4.3 -0.4,-9.2 0,-7.2 0.3,-9.5 0.7,-11.4 0.7,-3.6 5.5,-9 13.8,-9 10.1,0 13.4,6.9 13.9,9.6 0.2,1.9 0.3,6 0.3,10.8 m 0,-31.2 v 7 c -4.8,-5.6 -10.5,-8.3 -18.4,-8.3 -13.4,0 -20.3,7.5 -22.6,15.5 -0.9,3 -1.2,8.6 -1.2,17 0,7.9 0.1,15.1 2.8,20.6 3.8,7.7 13.2,12 20.9,12 7.5,0 13.9,-2.9 18.4,-8 v 3.9 c 0,4.6 -1.6,7.6 -4.5,10 -3,2.4 -6.7,3.9 -11.8,3.9 -4.7,0 -9.1,-2.5 -11.7,-4.3 l -9.5,9.5 c 6.1,5 13.5,8.4 21.4,8.4 8.4,0.1 15.2,-2.5 21.1,-7.1 5.7,-4.5 9.3,-12.9 9.3,-21.8 V 1.4 Z"
   id="path10"
   inkscape:connector-curvature="0"
   style="fill:#00db00" />







<rect
   x="0"
   y="87.082191"
   class="st1"
   width="5.8000002"
   height="88"
   id="rect12"
   style="fill:#8f8a87" /><path
   inkscape:connector-curvature="0"
   class="st1"
   d="m 72.899997,174.9822 h -6 v -41.3 c 0,-10.2 -3.3,-16.2 -13.7,-16.2 -8.9,0 -18.6,5.8 -22.6,9.6 v 47.9 h -6 v -61.7 h 5.2 l 0.4,8 c 7.2,-5.1 15.4,-9.2 24.1,-9.2 13,0 18.6,7.5 18.6,21.4 z"
   id="path14"
   style="fill:#8f8a87" /><path
   inkscape:connector-curvature="0"
   class="st1"
   d="m 118.70001,172.7822 c -2.9,2.1 -8.9,3.6 -13.2,3.6 -11.400013,0 -15.700013,-4.7 -15.700013,-15.6 v -42.4 h -9.8 v -5.2 h 9.8 v -17.5 l 6,-1 v 18.6 h 17.500013 v 5.2 H 95.799997 v 41.2 c 0,7.4 1.7,11.8 10.100013,11.8 3.8,0 8.4,-1.6 11.2,-3.3 z"
   id="path16"
   style="fill:#8f8a87" /><path
   inkscape:connector-curvature="0"
   class="st1"
   d="m 159.80001,144.3822 c -2.8,-0.2 -5.7,-0.4 -9.5,-0.4 -12.4,0 -23,2.6 -23,15.1 0,6.7 2.6,12.3 12.8,12.3 7.8,0 15.4,-3.6 19.7,-8.8 z m 6,21.9 c 0,3.4 0.6,5.1 3.8,5.1 1.1,0 2.2,-0.2 3.8,-0.7 l 0.5,3.9 c -2.4,1.2 -4,1.5 -6.6,1.5 -5.3,0 -7.3,-4 -7,-7.8 -4.7,4.7 -12.2,8.3 -20.9,8.3 -15.8,0 -18.2,-10.9 -18.2,-16.8 0,-17.6 15.9,-20.7 30.3,-20.7 2.9,0 5.7,0.1 8.4,0.2 v -5.5 c 0,-12.2 -3,-16.8 -14.7,-16.8 -10.3,0 -14.3,3.9 -15.7,11.5 l -5.7,-1 c 1.9,-11.4 9.5,-15.6 21.9,-15.6 14.5,0 20.3,5.3 20.3,20.7 v 33.7 z"
   id="path18"
   style="fill:#8f8a87" /><path
   inkscape:connector-curvature="0"
   class="st1"
   d="m 177.40001,144.3822 c 0,-21.8 10.7,-32.3 28.7,-32.3 11.7,0 21.3,6.7 21.9,20.1 l -6.4,0.7 c -1.1,-10.6 -6.2,-15.6 -16.2,-15.6 -10.3,0 -21.8,5.8 -21.8,26.2 0,22 10.7,27.3 21,27.3 9.5,0 16,-4.4 17.7,-14.1 l 6.1,1.2 c -2.3,13.2 -12.9,18.5 -23.7,18.5 -20.2,0.1 -27.3,-13.3 -27.3,-32"
   id="path20"
   style="fill:#8f8a87" /><path
   inkscape:connector-curvature="0"
   class="st1"
   d="m 235.80001,144.3822 c 0,-21.8 10.7,-32.3 28.7,-32.3 11.7,0 21.3,6.7 21.9,20.1 l -6.4,0.7 c -1.1,-10.6 -6.2,-15.6 -16.2,-15.6 -10.3,0 -21.7,5.8 -21.7,26.2 0,22 10.7,27.3 21,27.3 9.5,0 16,-4.4 17.7,-14.1 l 6.1,1.2 c -2.3,13.2 -12.9,18.5 -23.7,18.5 -20.4,0.1 -27.4,-13.3 -27.4,-32"
   id="path22"
   style="fill:#8f8a87" /><path
   inkscape:connector-curvature="0"
   class="st1"
   d="m 328.60001,172.7822 c -2.9,2.1 -8.9,3.6 -13.2,3.6 -11.4,0 -15.7,-4.7 -15.7,-15.6 v -42.4 h -9.8 v -5.2 h 9.8 v -17.5 l 6,-1 v 18.6 h 17.5 v 5.2 h -17.6 v 41.2 c 0,7.4 1.7,11.8 10.1,11.8 3.8,0 8.4,-1.6 11.2,-3.3 z"
   id="path24"
   style="fill:#8f8a87" /></svg>