<?xml version="1.0" encoding="UTF-8" standalone="no"?>
<!-- Generator: Adobe Illustrator 21.0.0, SVG Export Plug-In . SVG Version: 6.00 Build 0)  -->

<svg
   xmlns:dc="http://purl.org/dc/elements/1.1/"
   xmlns:cc="http://creativecommons.org/ns#"
   xmlns:rdf="http://www.w3.org/1999/02/22-rdf-syntax-ns#"
   xmlns:svg="http://www.w3.org/2000/svg"
   xmlns="http://www.w3.org/2000/svg"
   xmlns:sodipodi="http://sodipodi.sourceforge.net/DTD/sodipodi-0.dtd"
   xmlns:inkscape="http://www.inkscape.org/namespaces/inkscape"
   version="1.1"
   x="0px"
   y="0px"
   viewBox="0 0 191.39999 27.352402"
   enable-background="new 0 0 240 90"
   xml:space="preserve"
   id="svg36"
   sodipodi:docname="facebook_ads_logo_240x90_web.svg"
   width="191.39999"
   height="27.352402"
   inkscape:version="0.92.5 (2060ec1f9f, 2020-04-08)"><metadata
   id="metadata42"><rdf:RDF><cc:Work
       rdf:about=""><dc:format>image/svg+xml</dc:format><dc:type
         rdf:resource="http://purl.org/dc/dcmitype/StillImage" /><dc:title></dc:title></cc:Work></rdf:RDF></metadata><defs
   id="defs40" /><sodipodi:namedview
   pagecolor="#ffffff"
   bordercolor="#666666"
   borderopacity="1"
   objecttolerance="10"
   gridtolerance="10"
   guidetolerance="10"
   inkscape:pageopacity="0"
   inkscape:pageshadow="2"
   inkscape:window-width="1920"
   inkscape:window-height="1022"
   id="namedview38"
   showgrid="false"
   fit-margin-top="0"
   fit-margin-left="0"
   fit-margin-right="0"
   fit-margin-bottom="0"
   inkscape:zoom="1.1083333"
   inkscape:cx="95.7"
   inkscape:cy="13.652401"
   inkscape:window-x="2560"
   inkscape:window-y="0"
   inkscape:window-maximized="1"
   inkscape:current-layer="svg36" />
<g
   id="Layer_2"
   display="none"
   style="display:none"
   transform="translate(-24.3,-31.3)">
	
		<rect
   x="-10"
   y="0"
   display="inline"
   stroke-miterlimit="10"
   width="260"
   height="90"
   id="rect2"
   style="display:inline;fill:none;stroke:#e8e7e7;stroke-width:1.12769997;stroke-miterlimit:10" />
</g>
<g
   id="Layer_1"
   transform="translate(-24.3,-31.3)">
	<g
   id="g33">
		<g
   id="g23">
			<g
   id="g21">
				<path
   d="m 100.9,40.4 c -2.1,-0.2 -3.9,0.4 -5.4,2.3 v -0.6 0 -10 V 32 31.3 L 89.9,32 v 26.1 h 5.5 v -1.5 c 0.8,0.6 1.5,1.1 2.3,1.5 3.2,1.1 7.5,0.2 9,-4.1 0.9,-2.8 0.9,-5.6 0.2,-8.5 -0.7,-3 -2.8,-4.7 -6,-5.1 z m 0.8,11.3 c -0.3,1.7 -1.6,2.7 -3.2,2.5 -0.4,0 -0.8,-0.1 -1.1,-0.3 -1.3,-0.8 -1.7,-2 -1.8,-2.9 v 0 c -0.1,-1.2 -0.2,-3.8 0.4,-5 0.5,-0.9 1.4,-1.4 2.6,-1.5 1.7,-0.1 2.9,0.8 3.1,2.5 0.2,1.7 0.2,3.2 0,4.7 z"
   id="path5"
   inkscape:connector-curvature="0"
   style="fill:#3b5998" />
				<path
   d="m 120.5,40.7 c -1.9,-0.5 -3.9,-0.5 -5.8,0 -2.8,0.8 -4.8,2.6 -5.4,5.5 -0.4,1.6 -0.4,3.2 -0.3,4.8 0.2,3.7 2.5,6.4 6.1,7.1 0.1,0 0.1,0 0.2,0 v 0 0 c 0.1,0 0.3,0.1 0.4,0.1 h 0.1 v 0 c 0.2,0 0.4,0.1 0.6,0.1 0.7,0.1 1.6,0.1 2.3,0 v 0 h 0.1 c 3.7,-0.2 6.5,-2.5 7.3,-6.1 0.5,-2 0.5,-3.9 0,-5.9 -0.6,-2.8 -2.5,-4.8 -5.6,-5.6 z m 0.3,10.7 c 0,0.1 0,0.2 -0.1,0.4 -0.4,1.6 -1.5,2.6 -3.1,2.5 -1.7,-0.1 -2.9,-1 -3,-2.8 -0.1,-1.2 -0.1,-2.5 0,-3.8 0.2,-2 1.4,-3 3.2,-3 1.5,0 2.6,0.9 2.9,2.4 0.4,1.4 0.1,4 0.1,4.3 z"
   id="path7"
   inkscape:connector-curvature="0"
   style="fill:#3b5998" />
				<path
   d="m 37.3,40.6 h -4 v -2.7 c 0.3,-2.5 4.4,-2 4.4,-2 v -0.2 0 -4.1 0 0 0 c -0.1,0 -8.2,-1.9 -9.8,4.2 v 0 0 c -0.3,0.8 -0.2,4.3 -0.2,4.8 h -3.4 v 4.7 h 3.6 V 58 h 5.3 V 45.3 h 4.1 l 0.5,-4.7 z"
   id="path9"
   inkscape:connector-curvature="0"
   style="fill:#3b5998" />
				<path
   d="m 49.9,42.9 c -0.1,-0.1 -0.1,-0.1 -0.2,-0.2 v 0 0 c -0.1,-0.1 -0.1,-0.1 -0.1,-0.1 v 0 c -1.2,-1.2 -1.7,-1.6 -2.7,-1.9 -3.8,-1.1 -7.4,0.9 -8.5,4.7 -0.8,2.3 -0.8,4.8 -0.3,7 0.9,5.1 4.7,6.8 8.7,6 1.2,-0.3 2.2,-1 3,-2.1 0,0 0.1,-0.1 0.2,-0.3 v 2.3 h 5.1 V 40.7 h -5.3 v 2.2 z m -0.3,8.8 c -0.2,1.6 -1.5,2.6 -3,2.6 -1.6,-0.1 -2.7,-1 -2.9,-2.5 -0.4,-2.2 0.1,-4.8 0.1,-4.9 0.4,-1.4 1.5,-2.2 3,-2.2 1.5,0 2.7,1 2.9,2.6 0,1.4 0,2.9 -0.1,4.4 z"
   id="path11"
   inkscape:connector-curvature="0"
   style="fill:#3b5998" />
				<path
   d="M 70.9,56.9 C 70.6,56 70.4,55.2 70.1,54.3 l -0.3,-1 c 0,0 -6.5,3.1 -7.5,-2.8 -0.1,-1 -0.1,-2 0.1,-2.9 0.3,-1.8 1.3,-2.8 3.1,-2.9 0.6,-0.1 1.2,0 1.8,0.1 0.8,0.1 1.6,0.4 2.5,0.6 0.3,-1 0.7,-1.9 1,-2.8 0,-0.2 0.1,-0.3 0.1,-0.4 v 0 l 0.2,-0.6 c 0,-0.1 -0.1,-0.2 -0.3,-0.2 v 0 C 70.6,41.3 70.4,41.2 70,41 c -0.2,-0.1 -0.3,-0.1 -0.5,-0.2 -0.2,0 -0.2,-0.1 -0.2,-0.1 v 0 c -1.7,-0.5 -3.4,-0.6 -5.2,-0.4 -3.7,0.4 -6.3,2.6 -7,6.3 -0.4,1.9 -0.4,3.9 0.1,5.8 0.7,2.8 2.4,4.8 5.2,5.6 1.9,0.6 3.8,0.6 5.6,0.3 0.8,-0.1 1.9,-0.6 2.8,-0.9 l 0.3,-0.1 z"
   id="path13"
   inkscape:connector-curvature="0"
   style="fill:#3b5998" />
				<path
   d="m 88,50.1 c 0,-1.2 0,-2.5 -0.2,-3.6 -0.5,-3.2 -2.5,-5.3 -5.7,-5.9 -1.2,-0.2 -2.6,-0.2 -3.8,-0.1 -3.4,0.3 -6,2.5 -6.6,5.7 -0.3,1.9 -0.4,4 -0.1,6 0.4,2.9 1.8,4.8 4.3,5.7 v 0 0 0 c 1.1,0.4 6.7,1.8 11.5,-0.7 l -0.2,-0.8 v 0 c -0.2,-1 -0.5,-1.9 -0.8,-2.8 v -0.1 c 0,0 -0.1,0 -0.3,0.1 v 0 c -0.2,0.1 -0.4,0.1 -0.7,0.2 h -0.1 c -0.8,0.2 -1.8,0.5 -2.9,0.6 -1,0.1 -1.9,0.1 -2.9,0 -1.5,-0.3 -2.8,-1 -2.7,-3 h 0.9 c 3,0 6.1,0 9.1,0 0.1,0 0.2,0 0.2,0 v 0 h 0.7 v -0.2 z m -5,-2.4 h -6 c 0,-1.2 0.2,-2.3 1.2,-2.9 1.1,-0.8 2.4,-0.8 3.5,-0.1 1.3,0.5 1.4,1.7 1.3,3 z"
   id="path15"
   inkscape:connector-curvature="0"
   style="fill:#3b5998" />
				<polygon
   points="152.6,48.8 152.6,32.1 152.6,32 152.6,31.4 147.1,32 147.1,58.2 152.6,58.2 152.6,50.2 157.8,58.2 163.7,58.2 158,49.5 163.7,40.9 157.8,40.9 "
   id="polygon17"
   style="fill:#3b5998" />
				<path
   d="m 139.4,40.7 c -1.9,-0.5 -3.9,-0.5 -5.8,0 -2.9,0.8 -4.8,2.6 -5.4,5.5 -0.4,1.6 -0.4,3.2 -0.3,4.8 0.2,3.7 2.5,6.4 6.1,7.1 0.1,0 0.1,0 0.2,0 v 0 0 c 0.1,0 0.3,0.1 0.4,0.1 h 0.1 v 0 c 0.2,0 0.4,0.1 0.6,0.1 0.7,0.1 1.6,0.1 2.3,0 v 0 h 0.1 c 3.7,-0.2 6.5,-2.5 7.3,-6.1 0.5,-2 0.5,-3.9 0,-5.9 -0.6,-2.8 -2.5,-4.8 -5.6,-5.6 z m 0.3,10.7 c 0,0.1 0,0.2 -0.1,0.4 -0.4,1.6 -1.5,2.6 -3.1,2.5 -1.7,-0.1 -2.9,-1 -3,-2.8 -0.1,-1.2 -0.1,-2.5 0,-3.8 0.2,-2 1.4,-3 3.2,-3 1.5,0 2.6,0.9 2.9,2.4 0.4,1.4 0.1,4 0.1,4.3 z"
   id="path19"
   inkscape:connector-curvature="0"
   style="fill:#3b5998" />
			</g>
		</g>
		<g
   id="g31">
			<path
   d="m 187.4,57.7 -1.5,-5.3 h -8.1 l -1.5,5.3 h -2 l 6.5,-21.6 h 2.2 l 6.5,21.6 z m -5.6,-19.4 -3.7,12.5 h 7.3 z"
   id="path25"
   inkscape:connector-curvature="0"
   style="fill:#828282" />
			<path
   d="m 200.9,57.7 v -2.3 c -0.9,1.6 -2.5,2.8 -4.2,2.8 -3.5,0 -5.5,-3.3 -5.5,-8.2 0,-4.9 2,-8.2 5.5,-8.2 1.6,0 3.2,1 4.2,2.8 v -8.4 h 1.6 v 21.6 z m 0,-3.9 v -7.7 c -0.7,-1.5 -2.2,-2.9 -3.9,-2.9 -2.8,0 -4.1,3.1 -4.1,6.7 0,3.6 1.2,6.7 4.1,6.7 1.7,0 3.2,-1.3 3.9,-2.8 z"
   id="path27"
   inkscape:connector-curvature="0"
   style="fill:#828282" />
			<path
   d="m 205.8,55.9 0.9,-1.1 c 0.9,1.1 2.2,2 4,2 2,0 3.3,-1.1 3.3,-2.9 0,-4.1 -7.8,-2.8 -7.8,-8.2 0,-2.2 1.8,-4 4.7,-4 2,0 3.5,0.8 4.5,2 l -0.9,1.1 c -0.8,-1.1 -2.1,-1.7 -3.6,-1.7 -1.9,0 -3,1.1 -3,2.6 0,3.8 7.8,2.7 7.8,8.2 0,2.5 -1.9,4.3 -4.8,4.3 -2.2,0 -3.7,-0.8 -5.1,-2.3 z"
   id="path29"
   inkscape:connector-curvature="0"
   style="fill:#828282" />
		</g>
	</g>
</g>
</svg>