<svg width="24" height="24" viewBox="0 0 24 24" fill="none" xmlns="http://www.w3.org/2000/svg">
    <g id="CSV">
        <path id="Subtract" fill-rule="evenodd" clip-rule="evenodd" d="M4.94238 2.97266C3.83781 2.97266 2.94238 3.86809 2.94238 4.97266V19C2.94238 20.1046 3.83781 21 4.94238 21H19C20.1046 21 21 20.1046 21 19V4.97266C21 3.86809 20.1046 2.97266 19 2.97266H4.94238ZM8.28527 14.0945V13.1324H9.56483V13.9405C9.56483 14.7872 9.16717 15.2105 8.37186 15.2105H7.15965C6.36433 15.2105 5.96667 14.7872 5.96667 13.9405V10.0634C5.96667 9.21677 6.36433 8.79346 7.15965 8.79346H8.37186C9.16717 8.79346 9.56483 9.21677 9.56483 10.0634V10.6503H8.28527V9.89984C8.28527 9.84853 8.26603 9.80363 8.22755 9.76515C8.19548 9.72667 8.15379 9.70743 8.10248 9.70743H7.49637C7.44506 9.70743 7.40016 9.72667 7.36168 9.76515C7.32961 9.80363 7.31358 9.84853 7.31358 9.89984V14.0945C7.31358 14.1458 7.32961 14.1907 7.36168 14.2292C7.40016 14.2677 7.44506 14.2869 7.49637 14.2869H8.10248C8.15379 14.2869 8.19548 14.2677 8.22755 14.2292C8.26603 14.1907 8.28527 14.1458 8.28527 14.0945ZM13.8269 10.5252H12.5473V10.0345C12.5473 9.98322 12.5281 9.93832 12.4896 9.89984C12.4575 9.86136 12.4158 9.84212 12.3645 9.84212H11.8354C11.7841 9.84212 11.7392 9.86136 11.7007 9.89984C11.6686 9.93832 11.6526 9.98322 11.6526 10.0345V11.1409C11.6526 11.1922 11.6686 11.2371 11.7007 11.2756C11.7392 11.3141 11.7841 11.3333 11.8354 11.3333H12.7013C13.4966 11.3462 13.8942 11.7695 13.8942 12.6033V13.9405C13.8942 14.7872 13.4966 15.2105 12.7013 15.2105H11.566C10.7707 15.2105 10.373 14.7872 10.373 13.9405V13.296H11.6526V13.9886C11.6526 14.04 11.6686 14.0849 11.7007 14.1233C11.7392 14.1618 11.7841 14.1811 11.8354 14.1811H12.4319C12.4832 14.1811 12.5249 14.1618 12.5569 14.1233C12.5954 14.0849 12.6147 14.04 12.6147 13.9886V12.7668C12.6147 12.7155 12.5954 12.6706 12.5569 12.6321C12.5249 12.5936 12.4832 12.5744 12.4319 12.5744H11.566C10.7707 12.5744 10.373 12.1511 10.373 11.3045V10.0634C10.373 9.21677 10.7707 8.79346 11.566 8.79346H12.6339C13.4292 8.79346 13.8269 9.21677 13.8269 10.0634V10.5252ZM18.5892 8.88966H17.2904L16.5304 13.4306L15.7703 8.88966H14.4619L15.7511 15.1143H17.3L18.5892 8.88966Z" fill="currentColor"/>
    </g>
</svg>
