<?xml version="1.0" encoding="utf-8"?>
<!-- Generator: Adobe Illustrator 15.0.0, SVG Export Plug-In . SVG Version: 6.00 Build 0)  -->
<!DOCTYPE svg PUBLIC "-//W3C//DTD SVG 1.1//EN" "http://www.w3.org/Graphics/SVG/1.1/DTD/svg11.dtd">
<svg version="1.1"
	 id="svg130" xmlns:inkscape="http://www.inkscape.org/namespaces/inkscape" xmlns:rdf="http://www.w3.org/1999/02/22-rdf-syntax-ns#" xmlns:cc="http://creativecommons.org/ns#" xmlns:dc="http://purl.org/dc/elements/1.1/" xmlns:svg="http://www.w3.org/2000/svg" xmlns:sodipodi="http://sodipodi.sourceforge.net/DTD/sodipodi-0.dtd" inkscape:version="0.92.2 (5c3e80d, 2017-08-06)" sodipodi:docname="Quickbooks.svg"
	 xmlns="http://www.w3.org/2000/svg" xmlns:xlink="http://www.w3.org/1999/xlink" x="0px" y="0px" width="2500px" height="2500px"
	 viewBox="-1064.469 -1064.469 2500 2500" enable-background="new -1064.469 -1064.469 2500 2500" xml:space="preserve">
<sodipodi:namedview  id="base" bordercolor="#666666" pagecolor="#ffffff" fit-margin-left="0" inkscape:cy="-49.768312" fit-margin-top="0" inkscape:zoom="0.35" inkscape:cx="387.37455" borderopacity="1.0" showgrid="false" fit-margin-bottom="0" fit-margin-right="0" inkscape:window-y="391" inkscape:window-x="3832" inkscape:window-height="1017" inkscape:window-width="1920" inkscape:current-layer="layer1" inkscape:document-units="mm" inkscape:pageshadow="2" inkscape:pageopacity="0.0" inkscape:window-maximized="1">
	</sodipodi:namedview>
<g id="layer1" transform="translate(-3.3404847,-4.7631043)" inkscape:label="Calque 1" inkscape:groupmode="layer">
	<g id="layer1-23" transform="translate(108.10119,4.4830597)">
		<g id="layer1-2" transform="translate(-117.17262,25.702379)">
			<g id="layer1-4" transform="translate(28.726191,-185.96428)">
				<g id="layer1-8" transform="translate(32.165408,260.28377)">
					<g id="QuickBooks_-_Clearspace__x26__Lockup" transform="matrix(1.4544707,0,0,1.4544707,-558.9989,-409.10776)">
						<g id="QuickBooks_Lockup">
							<g id="Icon_2_">
								<circle id="Circle_2_" fill="#2CA01C" cx="478.559" cy="340.259" r="859.419"/>
								<path id="qb" inkscape:connector-curvature="0" fill="#FFFFFF" d="M-142.129,340.259
									c0,185.252,148.963,334.22,334.215,334.22h47.747V550.341h-47.747c-116.497,0-210.078-93.585-210.078-210.082
									c0-116.497,93.58-210.078,210.078-210.078h114.588c0,0,0,637.878,0,649.337c0,68.755,55.388,124.138,124.138,124.138V6.044
									c0,0-127.956,0-238.726,0C6.834,6.044-142.129,156.916-142.129,340.259z M765.032,6.044h-47.747v124.138h47.747
									c116.498,0,210.078,93.581,210.078,210.078c0,116.498-93.58,210.082-210.078,210.082H650.444c0,0,0-637.878,0-649.341
									c0-68.75-55.388-124.138-124.138-124.138v897.616c0,0,127.955,0,238.726,0c185.252,0,334.22-148.968,334.22-334.22
									C1099.252,156.916,950.284,6.044,765.032,6.044L765.032,6.044z"/>
							</g>
						</g>
					</g>
				</g>
			</g>
		</g>
	</g>
</g>
</svg>
