<?xml version="1.0" encoding="UTF-8" standalone="no"?>
<svg xmlns:sketch="http://www.bohemiancoding.com/sketch/ns" xmlns="http://www.w3.org/2000/svg" height="240px" width="214px" version="1.1" xmlns:xlink="http://www.w3.org/1999/xlink" viewBox="0 0 214 240"><!-- Generator: Sketch 3.4.2 (15855) - http://www.bohemiancoding.com/sketch -->
 <title>Page 1</title>
 <desc>Created with Sketch.</desc>
 <g id="Page-1" fill-rule="evenodd" sketch:type="MSPage" fill="none">
  <g id="Desktop-HD-Copy-26" transform="translate(-533 -2076)" fill="#FF6C36" sketch:type="MSArtboardGroup">
   <g id="Page-1" transform="translate(533 2076)" sketch:type="MSLayerGroup">
    <path id="Fill-1" sketch:type="MSShapeGroup" d="m120 223.64c-27.681 0-53.707-10.78-73.281-30.36-19.575-19.57-30.355-45.6-30.355-73.28 0-27.682 10.78-53.708 30.355-73.282 19.574-19.574 45.6-30.354 73.281-30.354 14.45 0 28.43 2.918 41.56 8.673 12.69 5.558 23.97 13.484 33.55 23.558 2.49 2.62 2.39 6.763-0.23 9.254-2.62 2.49-6.76 2.387-9.25-0.233-8.38-8.807-18.24-15.734-29.32-20.589-11.46-5.025-23.68-7.572-36.31-7.572-49.926 0-90.545 40.618-90.545 90.545 0 49.93 40.619 90.55 90.545 90.55 12.63 0 24.85-2.55 36.32-7.58 11.08-4.86 20.94-11.79 29.32-20.6 2.49-2.62 6.63-2.72 9.25-0.23s2.72 6.63 0.23 9.25c-9.58 10.08-20.86 18.01-33.55 23.57-13.13 5.76-27.12 8.68-41.57 8.68"/>
    <path id="Fill-3" sketch:type="MSShapeGroup" d="m120 202.91c-45.716 0-82.908-37.19-82.908-82.91 0-45.716 37.192-82.909 82.908-82.909 11.56 0 22.75 2.334 33.25 6.938 10.15 4.447 19.18 10.787 26.84 18.847 1.66 1.746 1.59 4.509-0.15 6.169-1.75 1.661-4.51 1.591-6.17-0.155-14.15-14.878-33.25-23.072-53.77-23.072-40.903 0-74.181 33.278-74.181 74.182 0 40.9 33.278 74.18 74.181 74.18 11.05 0 21.67-2.37 31.58-7.04 2.18-1.02 4.78-0.09 5.81 2.09s0.09 4.78-2.09 5.81c-11.08 5.22-22.96 7.87-35.3 7.87"/>
    <path id="Fill-5" sketch:type="MSShapeGroup" d="m204.15 168.87c3 2.02 3.79 6.09 1.77 9.08-2.02 3-6.09 3.79-9.09 1.77-2.99-2.02-3.79-6.09-1.76-9.09 2.02-2.99 6.09-3.79 9.08-1.76"/>
    <path id="Fill-7" sketch:type="MSShapeGroup" d="m120 240c-32.052 0-62.187-12.48-84.852-35.15-22.665-22.66-35.147-52.8-35.147-84.85-0.00017091-32.053 12.482-62.187 35.147-84.853 22.665-22.665 52.8-35.147 84.852-35.147 16.73 0 32.92 3.3788 48.13 10.042 14.68 6.435 27.75 15.613 38.84 27.279 1.66 1.746 1.59 4.508-0.15 6.169-1.75 1.661-4.51 1.591-6.17-0.155-10.29-10.821-22.41-19.333-36.03-25.3-14.09-6.176-29.1-9.3077-44.62-9.3077-29.721 0-57.664 11.575-78.681 32.591-21.017 21.017-32.591 48.96-32.591 78.682 0.0001 29.72 11.574 57.67 32.591 78.68 21.017 21.02 48.96 32.59 78.681 32.59 4.36 0 8.76-0.25 13.06-0.75 2.39-0.28 4.56 1.43 4.84 3.82 0.28 2.4-1.43 4.56-3.83 4.84-4.63 0.55-9.37 0.82-14.07 0.82"/>
    <path id="Fill-9" sketch:type="MSShapeGroup" d="m146.53 236.94c-1.98 0-3.77-1.35-4.24-3.37-0.55-2.34 0.9-4.69 3.25-5.24 14.91-3.5 28.71-9.95 41.03-19.15 1.93-1.45 4.66-1.05 6.1 0.88 1.45 1.93 1.05 4.66-0.88 6.11-13.28 9.93-28.17 16.88-44.25 20.66-0.34 0.07-0.68 0.11-1.01 0.11"/>
    <path id="Fill-11" sketch:type="MSShapeGroup" d="m199.25 208.58c-1.16 0-2.32-0.46-3.18-1.38-1.65-1.75-1.57-4.51 0.19-6.16 1.63-1.55 3.24-3.15 4.78-4.78 1.65-1.76 4.41-1.84 6.16-0.19 1.76 1.65 1.84 4.41 0.19 6.17-1.65 1.75-3.39 3.49-5.15 5.15-0.84 0.79-1.92 1.19-2.99 1.19"/>
    <path id="Fill-13" sketch:type="MSShapeGroup" d="m164.78 188.91c-1.37 0-2.71-0.64-3.56-1.84-1.4-1.96-0.94-4.69 1.02-6.08 4.86-3.46 7.33-5.47 11.53-9.88 1.66-1.75 4.42-1.82 6.17-0.15 1.74 1.66 1.81 4.42 0.15 6.16-4.72 4.97-7.76 7.4-12.79 10.98-0.76 0.54-1.65 0.81-2.52 0.81"/>
    <path id="Fill-15" sketch:type="MSShapeGroup" d="m206.97 37.319c-5.42-5.704-11.4-10.884-17.83-15.424-6.42-4.53-13.28-8.417-20.46-11.605-7.71-3.4253-15.78-6.04-24.05-7.7654-8.28-1.7298-16.74-2.5619-25.2-2.5231-7.48 0.0345-14.96 0.75275-22.304 2.1631-7.242 1.3902-14.354 3.4521-21.213 6.1584-6.83 2.694-13.406 6.026-19.621 9.934-6.29 3.955-12.207 8.5-17.663 13.543-5.516 5.099-10.567 10.703-15.052 16.729-4.414 5.927-8.278 12.263-11.519 18.905-3.217 6.591-5.819 13.482-7.7639 20.555-1.9619 7.135-3.254 14.451-3.8701 21.831-0.65676 7.86-0.55203 15.79 0.32463 23.63 0.90677 8.11 2.6418 16.13 5.1779 23.89 2.5091 7.67 5.8015 15.09 9.8075 22.1 4.134 7.23 9.06 14.1 14.636 20.35 5.18 5.81 10.911 11.12 17.101 15.84 5.885 4.48 12.184 8.42 18.796 11.73 6.579 3.3 13.465 5.99 20.541 8.01 7.111 2.04 14.412 3.4 21.772 4.09 3.62 0.34 7.25 0.52 10.88 0.53-0.76-6.38-2.36-12.67-4.76-18.64-2.32-5.79-5.37-11.28-9.07-16.31-3.68-5.01-7.983-9.55-12.785-13.49-4.825-3.96-10.148-7.31-15.81-9.94-1.414-0.66-2.849-1.27-4.303-1.84-0.369-0.14-0.74-0.28-1.111-0.42-0.149-0.05-0.338-0.09-0.471-0.17-0.204-0.13-0.25-0.42-0.341-0.66-0.328-0.87-0.709-1.72-1.14-2.54-0.873-1.66-1.953-3.21-3.205-4.61-1.22-1.37-2.472-2.69-3.64-4.1-4.544-5.49-8.295-11.63-11.088-18.18-2.789-6.54-4.619-13.48-5.429-20.54-0.746-6.5-0.639-13.1 0.327-19.56 0.883-5.91 2.486-11.702 4.766-17.22 2.218-5.371 5.073-10.475 8.48-15.181 3.395-4.689 7.336-8.979 11.719-12.761 4.396-3.793 9.235-7.073 14.391-9.744 5.217-2.702 10.755-4.779 16.46-6.169 5.95-1.447 12.07-2.145 18.19-2.094 6.99 0.058 13.97 1.08 20.68 3.076 6.59 1.961 12.9 4.861 18.68 8.583 2.94 1.893 5.75 3.996 8.4 6.285 1.34 1.159 2.63 2.365 3.89 3.615 1.29 1.286 2.51 2.629 3.94 3.758 5.55 4.36 12.98 5.907 19.81 4.166 6.66-1.695 12.33-6.44 15.18-12.687 2.52-5.536 2.73-11.996 0.56-17.68-1.08-2.828-2.72-5.426-4.81-7.618-11.09-11.659 8.72 9.168 0 0"/>
    <path id="Fill-17" sketch:type="MSShapeGroup" d="m148.36 120c0-15.66-12.69-28.363-28.36-28.363-15.66 0-28.363 12.703-28.363 28.363s12.703 28.36 28.363 28.36c15.67 0 28.36-12.7 28.36-28.36"/>
   </g>
  </g>
 </g>
</svg>
