<svg width="24" height="24" viewBox="0 0 24 24" fill="none" xmlns="http://www.w3.org/2000/svg">
    <g id="JSON">
        <g id="Subtract">
            <path d="M14.2079 14.0945V9.89984C14.2079 9.84853 14.1887 9.80363 14.1502 9.76515C14.1181 9.72667 14.0764 9.70743 14.0251 9.70743H13.419C13.3677 9.70743 13.3228 9.72667 13.2843 9.76515C13.2523 9.80363 13.2362 9.84853 13.2362 9.89984V14.0945C13.2362 14.1458 13.2523 14.1907 13.2843 14.2292C13.3228 14.2677 13.3677 14.2869 13.419 14.2869H14.0251C14.0764 14.2869 14.1181 14.2677 14.1502 14.2292C14.1887 14.1907 14.2079 14.1458 14.2079 14.0945Z" fill="currentColor"/>
            <path fill-rule="evenodd" clip-rule="evenodd" d="M4.94238 2.97266C3.83781 2.97266 2.94238 3.86809 2.94238 4.97266V19C2.94238 20.1046 3.83781 21 4.94238 21H19C20.1046 21 21 20.1046 21 19V4.97266C21 3.86809 20.1046 2.97266 19 2.97266H4.94238ZM10.0421 10.5252H11.3216V10.0634C11.3216 9.21677 10.924 8.79346 10.1287 8.79346H9.06076C8.26544 8.79346 7.86779 9.21677 7.86779 10.0634V11.3045C7.86779 12.1511 8.26544 12.5744 9.06076 12.5744H9.92662C9.97793 12.5744 10.0196 12.5936 10.0517 12.6321C10.0902 12.6706 10.1094 12.7155 10.1094 12.7668V13.9886C10.1094 14.04 10.0902 14.0849 10.0517 14.1233C10.0196 14.1618 9.97793 14.1811 9.92662 14.1811H9.33014C9.27883 14.1811 9.23393 14.1618 9.19545 14.1233C9.16338 14.0849 9.14734 14.04 9.14734 13.9886V13.296H7.86779V13.9405C7.86779 14.7872 8.26544 15.2105 9.06076 15.2105H10.196C10.9913 15.2105 11.389 14.7872 11.389 13.9405V12.6033C11.389 11.7695 10.9913 11.3462 10.196 11.3333H9.33014C9.27883 11.3333 9.23393 11.3141 9.19545 11.2756C9.16338 11.2371 9.14734 11.1922 9.14734 11.1409V10.0345C9.14734 9.98322 9.16338 9.93832 9.19545 9.89984C9.23393 9.86136 9.27883 9.84212 9.33014 9.84212H9.85928C9.91059 9.84212 9.95228 9.86136 9.98435 9.89984C10.0228 9.93832 10.0421 9.98322 10.0421 10.0345V10.5252ZM7.45214 8.88966H6.10524V14.0945C6.10524 14.1458 6.086 14.1907 6.04751 14.2292C6.01544 14.2677 5.97376 14.2869 5.92244 14.2869H5.41255C5.36124 14.2869 5.31634 14.2677 5.27786 14.2292C5.24579 14.1907 5.22975 14.1458 5.22975 14.0945V13.1613H3.9502V13.9405C3.9502 14.7872 4.34785 15.2105 5.14317 15.2105H6.25917C7.05448 15.2105 7.45214 14.7872 7.45214 13.9405V8.88966ZM15.5548 10.0634V13.9405C15.5548 14.7872 15.1572 15.2105 14.3619 15.2105H13.0823C12.287 15.2105 11.8893 14.7872 11.8893 13.9405V10.0634C11.8893 9.21677 12.287 8.79346 13.0823 8.79346H14.3619C15.1572 8.79346 15.5548 9.21677 15.5548 10.0634ZM18.3869 15.1143H19.7338V10.0634C19.7338 9.21677 19.3362 8.79346 18.5409 8.79346H17.3479C16.5526 8.79346 16.1549 9.21677 16.1549 10.0634V15.1143H17.5018V9.94794C17.5018 9.89663 17.5179 9.85174 17.5499 9.81325C17.5884 9.77477 17.6333 9.75553 17.6846 9.75553H18.2041C18.2554 9.75553 18.2971 9.77477 18.3292 9.81325C18.3677 9.85174 18.3869 9.89663 18.3869 9.94794V15.1143Z" fill="currentColor"/>
        </g>
    </g>
</svg>
