<?xml version="1.0" encoding="UTF-8" standalone="no"?>
<svg
   xmlns:dc="http://purl.org/dc/elements/1.1/"
   xmlns:cc="http://creativecommons.org/ns#"
   xmlns:rdf="http://www.w3.org/1999/02/22-rdf-syntax-ns#"
   xmlns:svg="http://www.w3.org/2000/svg"
   xmlns="http://www.w3.org/2000/svg"
   viewBox="0 0 947.47998 1184.1333"
   height="1184.1333"
   width="947.47998"
   xml:space="preserve"
   id="svg2"
   version="1.1"><metadata
     id="metadata8"><rdf:RDF><cc:Work
         rdf:about=""><dc:format>image/svg+xml</dc:format><dc:type
           rdf:resource="http://purl.org/dc/dcmitype/StillImage" /><dc:title></dc:title></cc:Work></rdf:RDF></metadata><defs
     id="defs6" /><g
     transform="matrix(1.3333333,0,0,-1.3333333,0,1184.1333)"
     id="g10"><g
       transform="scale(0.1)"
       id="g12"><path
         id="path14"
         style="fill:#f8b517;fill-opacity:1;fill-rule:nonzero;stroke:none"
         d="m 595.645,2564.71 -0.004,0.01 C 28.5039,2892.15 -167.613,3624.07 159.824,4191.2 L 2514.09,8268.92 c 327.44,567.13 1059.36,763.25 1626.5,435.82 v -0.01 C 4707.72,8377.3 4903.84,7645.38 4576.41,7078.24 L 2222.14,3000.53 C 1894.7,2433.39 1162.78,2237.28 595.645,2564.71" /><path
         id="path16"
         style="fill:#5288cf;fill-opacity:1;fill-rule:nonzero;stroke:none"
         d="m 6507.49,2582.39 v 0 C 5940.35,2254.95 5208.42,2451.07 4880.99,3018.2 L 2526.72,7095.92 c -327.44,567.14 -131.32,1299.06 435.81,1626.5 v 0 c 567.14,327.44 1299.07,131.31 1626.5,-435.82 L 6943.3,4208.89 c 327.44,-567.14 131.31,-1299.07 -435.81,-1626.5" /><path
         id="path18"
         style="fill:#3fb858;fill-opacity:1;fill-rule:nonzero;stroke:none"
         d="m 2414.33,3613.39 c 0,-666.7 -540.47,-1207.17 -1207.17,-1207.17 C 540.465,2406.22 0,2946.69 0,3613.39 c 0,666.69 540.465,1207.16 1207.16,1207.16 666.7,0 1207.17,-540.47 1207.17,-1207.16" /><path
         id="path20"
         style="fill:#6e7274;fill-opacity:1;fill-rule:nonzero;stroke:none"
         d="m 3037.66,15.2891 c -93.73,30.6328 -178.44,102.7699 -222.85,189.7929 -12.73,25.008 -6.31,30.129 77.58,62.379 59.09,22.719 78.01,25.23 78.01,10.391 0,-21.543 56.22,-79.332 94.76,-97.461 77.11,-36.25 178.52,-14.481 226.64,48.57 22.19,29.148 41.98,106.551 38.36,150.211 l -1.91,23.207 -36.56,-25.5 c -52.04,-36.25 -138.03,-52.207 -208.32,-38.629 -84.08,16.23 -137.3,44.25 -193.7,101.859 -59.54,60.903 -85.18,110.18 -103.86,199.731 -37.4,179.398 76.45,371.34 254.07,428.37 90.24,28.98 216.78,10.32 270.15,-39.84 l 20.54,-19.27 2.95,25.78 2.94,25.78 h 81.36 81.33 l 2.65,-361.551 C 3504.57,319.27 3500.45,267.32 3461.04,186.512 3422.02,106.539 3346.35,43.5391 3253.41,13.6719 3194.73,-5.17188 3098.14,-4.44141 3037.66,15.2891 Z m 161.83,484.9919 c 89.21,26.051 141.49,102.731 141.49,207.508 0,64.281 -17.5,114.82 -52.83,152.582 -102.94,110.117 -277.86,62.539 -321.46,-87.453 -17.86,-61.477 -17.83,-66.16 0.81,-133.258 16.7,-60.039 69.46,-122.238 111.35,-131.281 12.43,-2.699 30.74,-8.41 40.68,-12.68 25.16,-10.84 27.61,-10.711 79.96,4.582 v 0" /><path
         id="path22"
         style="fill:#6e7274;fill-opacity:1;fill-rule:nonzero;stroke:none"
         d="m 1471.91,338.559 c -143.15,25.543 -246.99,118.961 -295.92,266.242 -22.6,68.051 -15.07,185.89 16.14,252.609 67.2,143.66 194.98,226.14 349.63,225.63 294.68,-0.96 469,-300.2 330.53,-567.411 -39.58,-76.418 -152.64,-157.91 -241.85,-174.32 -79.8,-14.668 -90.46,-14.848 -158.53,-2.75 z m 181.24,190.511 c 69.98,48.481 104.14,153.852 79.45,245.11 -20.57,76.058 -108.07,146.39 -182.14,146.39 -119.47,0 -206.38,-88.191 -206.86,-209.898 -0.35,-97.012 59.71,-186.5 138.88,-206.883 51.34,-13.219 132.45,-1.207 170.67,25.281" /><path
         id="path24"
         style="fill:#6e7274;fill-opacity:1;fill-rule:nonzero;stroke:none"
         d="m 4122.84,338.738 c -142.9,33.512 -236.6,123.774 -284.03,273.571 -12.87,40.621 -12.44,158.55 0.72,199.152 55.43,171.117 181.37,271.799 340,271.799 90.57,0 165.39,-30.76 230.35,-94.701 46.46,-45.727 106.14,-145.668 106.14,-177.77 0,-20.75 -10.82,-27.031 -122.02,-70.687 -89.42,-35.141 -132.58,-52.813 -203.36,-83.352 -12.44,-5.398 -30.74,-13.09 -40.68,-17.09 -9.95,-4.039 -36.39,-15.211 -58.76,-24.738 -22.38,-9.582 -46.37,-19.16 -53.34,-21.32 -21.72,-6.653 53.02,-76.454 94.02,-87.782 80.55,-22.269 151.43,-6.922 207.57,44.828 21.18,19.532 42.63,35.493 47.71,35.493 15.33,0 128.54,-76.09 128.69,-86.532 0.33,-19.25 -79.03,-91.75 -131.47,-120.121 -48.1,-26.078 -158.4,-57.066 -193.74,-54.457 -7.47,0.539 -37.99,6.699 -67.8,13.707 z m -95.03,403.981 c 33.4,14.871 21.07,10.832 26.91,11 5.87,0.14 43.5,16.351 75.71,31.261 32.23,14.93 65.06,27.118 72.95,27.118 7.89,0 -38.58,-20.02 -38.58,-16.078 0,3.929 75.33,38.019 102.71,47.328 48.37,16.453 49.32,17.414 33.92,34.433 -45.54,50.321 -137.58,60.348 -198.86,21.66 -49.65,-31.339 -89.26,-84.589 -96.91,-130.273 -6.86,-41.008 -10.17,-40.82 22.15,-26.449" /><path
         id="path26"
         style="fill:#6e7274;fill-opacity:1;fill-rule:nonzero;stroke:none"
         d="M 471.168,342.52 C 360.852,360.148 254.375,418.531 161.234,512.469 95.8633,578.41 52.8945,648.07 16.8711,746.52 c -22.89063,62.601 -22.37501,268.9 0.8516,332.22 73.4179,200.19 213.9883,334.51 412.7653,394.47 63.168,19.07 264.02,16.39 320.883,-4.25 86.195,-31.32 191.742,-92.29 221.227,-127.82 10.797,-13.01 5.285,-21.87 -45.446,-73.07 -31.769,-32.04 -59.906,-58.27 -62.535,-58.26 -2.629,0 -16.621,10.2 -31.054,22.62 -74.903,64.42 -218.883,98.47 -327.965,77.59 -124.219,-23.79 -227.254,-102.45 -285.11,-217.7 -28.965,-57.68 -47.785,-61.03 -47.785,-180.8 0,-113.77 19.926,-125.551 42.746,-174.25 13.473,-28.75 47.672,-76.571 76.004,-106.29 C 394.848,522.602 545.98,479.91 690.57,518.371 c 81.11,21.539 115.852,40.109 166.489,88.867 44.281,42.621 73.125,95.473 83.363,152.692 l 6.023,33.718 -183.402,2.43 -183.398,2.461 v 84.402 84.399 l 262.101,-0.75 c 144.188,-0.418 264.624,-0.762 267.654,-0.789 3.07,-0.031 9.92,-21.832 15.27,-48.473 C 1144.8,817.078 1107.85,665.211 1036.95,556.82 978.555,467.551 916.047,419.34 783.012,361.051 727.832,336.891 566.465,327.281 471.168,342.52 v 0" /><path
         id="path28"
         style="fill:#6e7274;fill-opacity:1;fill-rule:nonzero;stroke:none"
         d="m 2256.79,342.301 c -96,20.281 -196.24,96.597 -241.71,184.031 -75.78,145.707 -56.54,314.707 49.18,431.699 150.79,166.899 416.6,166.829 570.21,-0.16 132.16,-143.68 118.46,-404.473 -27.84,-529.73 -69.71,-59.672 -137.59,-86.571 -229,-90.661 -44.34,-2.019 -98.71,0.141 -120.84,4.821 z m 155.94,163.879 c 42.05,10.519 98.49,63.5 119.16,111.851 8.3,19.379 21.63,56.707 19.65,93.938 -2.81,53.242 -14.12,91.07 -25.25,104.57 -47.11,57.031 -71.76,77.93 -106.29,90.121 -77.38,27.301 -149.38,12.371 -207.6,-43.051 -113.83,-108.359 -70.16,-309.539 78.07,-359.718 42.5,-14.403 56.8,-14.121 122.26,2.289" /><path
         id="path30"
         style="fill:#6e7274;fill-opacity:1;fill-rule:nonzero;stroke:none"
         d="M 3594.07,902.488 V 1454.5 l 88.12,-2.58 88.13,-2.58 V 902.48 355.648 l -88.13,-2.597 -88.12,-2.571 v 552 0.008" /><path
         id="path32"
         style="fill:#6e7274;fill-opacity:1;fill-rule:nonzero;stroke:none"
         d="m 6125.41,352.961 c -90.46,13.898 -170,79.328 -216.19,177.859 -20.5,43.719 -23.81,62.782 -23.81,136.629 0,113.18 25.52,184.961 87.27,245.301 66.62,65.129 114.45,84.68 206.47,84.449 84.6,-0.219 135.69,-19.289 180.54,-67.39 l 22.82,-24.457 -4.52,178.698 -4.51,178.71 62.2,2.9 c 35.89,1.67 63.63,-0.92 65.61,-6.15 1.89,-4.97 2.39,-207.79 1.11,-450.74 l -2.37,-441.7 -58.76,0.051 -58.76,0.09 3.23,38.898 3.21,38.95 -34.38,-30.18 c -64.12,-56.309 -137.24,-76.047 -229.16,-61.918 z m 168.76,137.66 c 21.54,14.301 46.46,42.809 61.52,70.508 21.04,38.68 25.3,57.301 25.12,110.332 -0.25,80.008 -18.62,125.75 -68.33,170.168 -76.26,68.133 -167.47,67.91 -240.93,-0.578 -45.2,-42.153 -65.01,-88.61 -65.77,-154.211 -1.18,-102.18 38.49,-175.219 114.55,-210.969 50.56,-23.789 125.15,-17.449 173.84,14.75 z m 516.04,-138.473 c -86.3,10.52 -158.49,61.25 -200.16,140.711 -16,30.59 -13.12,35.942 28.05,52.442 21.11,8.461 41.02,19.609 44.23,24.789 3.53,5.711 12.5,1.301 22.63,-11.149 76.56,-93.961 93.8,-103.492 176.51,-97.511 50.13,3.64 58.42,7.191 81.36,34.672 49.71,59.539 14.12,97.546 -125.57,134.199 -156.69,41.07 -219.47,93.82 -219.47,184.41 0,74.109 27.39,116.777 97.93,152.59 54.94,27.89 65.66,30.078 145.64,30.051 76.78,-0.032 91.62,-2.813 133.85,-25.032 49.65,-26.129 112.66,-99.359 104.27,-121.23 -2.49,-6.481 -7.81,-9.75 -11.81,-7.27 -4,2.469 -26.86,-3.91 -50.82,-14.179 -29.16,-12.493 -44.68,-15.321 -46.92,-8.563 -5.09,15.172 -38.84,45.012 -68.55,60.57 -35.44,18.551 -115.38,11.821 -148.05,-12.468 -15.34,-11.399 -25.49,-28.442 -27.23,-45.629 -4.02,-40.051 26.38,-59.172 139.01,-87.422 139.55,-34.949 172.9,-54.598 207.1,-122.059 24.18,-47.672 15.88,-133.519 -17.11,-176.789 -54.19,-71.062 -143.8,-99.84 -264.89,-85.133 z M 4859.57,373.73 c 0.04,4.95 37.08,106.629 82.27,225.95 45.23,119.308 99.6,263.711 120.85,320.89 57.54,154.86 147.98,394.64 172.72,457.99 11.99,30.68 21.78,60.17 21.78,65.53 0,6.3 30.16,9.77 84.91,9.77 72.5,0 85.8,-2.33 91.06,-15.82 23.92,-61.6 328.8,-870.161 348.5,-924.22 13.55,-37.281 31.27,-83.558 39.34,-102.8 8.08,-19.25 14.69,-36.532 14.69,-38.411 0,-1.89 -36.32,-3.418 -80.7,-3.418 h -80.71 l -19.45,51.989 c -10.7,28.558 -33.84,93.629 -51.45,144.59 l -32.02,92.691 H 5347.23 5123.11 L 5108.7,620 c -7.91,-21.082 -31.73,-86.52 -52.91,-145.352 l -38.5,-106.988 -78.91,-1.488 c -47.6,-0.902 -78.85,2.066 -78.81,7.558 z m 655.8,435.649 c -3.25,8.453 -40.71,111.152 -83.23,228.241 -42.55,117.07 -80.46,216.21 -84.29,220.27 -6.13,6.54 -78.51,-181.16 -84.38,-218.87 -1.26,-7.98 -4.88,-18.69 -8.07,-23.81 -8.5,-13.56 -79.56,-204.171 -79.56,-213.358 0,-4.321 77.74,-7.832 172.72,-7.832 158.8,0 172.23,1.23 166.81,15.359 v 0" /></g></g></svg>