<?xml version="1.0" encoding="UTF-8" standalone="no"?>
<svg
   xmlns:dc="http://purl.org/dc/elements/1.1/"
   xmlns:cc="http://creativecommons.org/ns#"
   xmlns:rdf="http://www.w3.org/1999/02/22-rdf-syntax-ns#"
   xmlns:svg="http://www.w3.org/2000/svg"
   xmlns="http://www.w3.org/2000/svg"
   xmlns:sodipodi="http://sodipodi.sourceforge.net/DTD/sodipodi-0.dtd"
   xmlns:inkscape="http://www.inkscape.org/namespaces/inkscape"
   width="33.450558"
   height="39.255558"
   viewBox="0 0 33.450558 39.255558"
   version="1.1"
   id="svg22"
   sodipodi:docname="recharge-logo-horizontal.svg"
   style="fill:none"
   inkscape:version="0.92.5 (2060ec1f9f, 2020-04-08)">
  <metadata
     id="metadata28">
    <rdf:RDF>
      <cc:Work
         rdf:about="">
        <dc:format>image/svg+xml</dc:format>
        <dc:type
           rdf:resource="http://purl.org/dc/dcmitype/StillImage" />
        <dc:title></dc:title>
      </cc:Work>
    </rdf:RDF>
  </metadata>
  <defs
     id="defs26" />
  <sodipodi:namedview
     pagecolor="#ffffff"
     bordercolor="#666666"
     borderopacity="1"
     objecttolerance="10"
     gridtolerance="10"
     guidetolerance="10"
     inkscape:pageopacity="0"
     inkscape:pageshadow="2"
     inkscape:window-width="1920"
     inkscape:window-height="1022"
     id="namedview24"
     showgrid="false"
     fit-margin-top="0"
     fit-margin-left="0"
     fit-margin-right="0"
     fit-margin-bottom="0"
     inkscape:zoom="1.7733333"
     inkscape:cx="74.997559"
     inkscape:cy="19.427187"
     inkscape:window-x="2560"
     inkscape:window-y="0"
     inkscape:window-maximized="1"
     inkscape:current-layer="svg22" />
  <path
     d="m 19.657959,9.345349 c -2.8012,1.46202 -5.5946,2.92032 -8.4155,4.39252 0.8768,0.4968 1.7148,0.9716 2.5521,1.446 2.6615,-1.5771 5.3069,-3.1448 7.9795,-4.7286 -0.7192,-0.3773 -1.4103,-0.73983 -2.1161,-1.10992 z m 8.3734,4.38572 c -1.2489,-0.654 -2.4729,-1.295 -3.6935,-1.9341 -2.693,1.5961 -5.3741,3.1849 -8.077,4.7867 1.1534,0.6539 2.2734,1.2888 3.3892,1.9211 2.7994,-1.5944 5.581,-3.1787 8.3813,-4.7737 z m -9.1555,6.0903 c -1.1206,-0.6352 -2.2383,-1.2686 -3.3907,-1.9219 v 3.4695 c -0.8356,-0.4732 -1.6432,-0.931 -2.4534,-1.3899 v -3.4713 c -0.8658,-0.4912 -1.7292,-0.9807 -2.5954,-1.4721 v 10.0446 c 2.8204,1.585 5.6205,3.1585 8.4395,4.7425 z m 9.996,5.2233 v -10.0348 c -2.8444,1.6197 -5.6551,3.2204 -8.4516,4.8132 v 10.0664 c 2.8394,-1.6277 5.6566,-3.2425 8.4516,-4.8448 z M 8.9091789,13.233269 c 3.5703801,-1.8635 7.1550801,-3.73433 10.7495801,-5.61047 3.572,1.87085 7.1433,3.74117 10.7373,5.62327 v 12.6845 c -3.5341,2.0261 -7.0988,4.0696 -10.6738,6.1192 -3.5983,-2.0222 -7.1957,-4.0438 -10.8130801,-6.0765 z"
     id="path18"
     inkscape:connector-curvature="0"
     style="clip-rule:evenodd;fill:#53bad3;fill-rule:evenodd" />
  <path
     d="m 30.316659,3.158239 c -0.3401,-0.81896 -0.6667,-1.60504 -1.0024,-2.41360303 0.524,-0.218577 1.0416,-0.434509 1.5821,-0.659886 0.853,2.05068903 1.7003,4.08759903 2.5542,6.14017903 -2.1559,0.18079 -4.286,0.35951 -6.444,0.54049 -0.0468,-0.56486 -0.0933,-1.12368 -0.1417,-1.70743 0.9333,-0.07935 1.8473,-0.1568 2.7611,-0.23445 -2.308,-1.60145 -4.8524,-2.59572 -7.6293,-2.93539 -5.0567,-0.61851 -9.6281,0.61587 -13.6025301,3.81744 -7.83287402,6.30978 -8.83658902,17.63748 -2.63388,25.25178 6.4232101,7.8852 18.5157101,9.0102 26.2817101,1.5918 0.3915,0.4071 0.7829,0.8144 1.1745,1.2217 -6.3602,6.2553 -17.0951,7.6311 -25.2141501,1.6583 -8.26265302,-6.0786 -10.4624,-17.4831 -5.01952,-26.15909 2.89742,-4.61902 7.0426701,-7.58294 12.3704701,-8.77179003 5.321,-1.187343 10.3058,-0.234068 14.9634,2.65995003 z"
     id="path20"
     inkscape:connector-curvature="0"
     style="clip-rule:evenodd;fill:#53bad3;fill-rule:evenodd" />
</svg>
