<svg width="99" height="52" viewBox="0 0 99 52" fill="none" xmlns="http://www.w3.org/2000/svg">
    <g clip-path="url(#clip0_542_356)">
        <path d="M98.5 2H42.5V11H98.5V2Z" fill="#2A6AAA"/>
        <path d="M98.5 21.5H22.5V30.5H98.5V21.5Z" fill="#2A6AAA"/>
        <path d="M98.5 41H62.5V50H98.5V41Z" fill="#2A6AAA"/>
        <path d="M46.4 52C49.9899 52 52.9 49.0899 52.9 45.5C52.9 41.9101 49.9899 39 46.4 39C42.8102 39 39.9 41.9101 39.9 45.5C39.9 49.0899 42.8102 52 46.4 52Z" fill="#2A6AAA"/>
        <path d="M6.5 33C10.0899 33 13 30.0899 13 26.5C13 22.9101 10.0899 20 6.5 20C2.91015 20 0 22.9101 0 26.5C0 30.0899 2.91015 33 6.5 33Z" fill="#2A6AAA"/>
        <path d="M26.2 13C29.7899 13 32.7 10.0899 32.7 6.5C32.7 2.91015 29.7899 0 26.2 0C22.6101 0 19.7 2.91015 19.7 6.5C19.7 10.0899 22.6101 13 26.2 13Z" fill="#2A6AAA"/>
    </g>
</svg>
